<svg xmlns="http://www.w3.org/2000/svg"
     width="180.000mm" height="180.000mm"
     viewBox="0 0 180.000 180.000">

  <!-- Cases sombres (gravure laser) -->
  <g id="engrave">
    <rect x="30.000" y="10.000" width="20.000" height="20.000" fill="#000000" stroke="none"/>
    <rect x="70.000" y="10.000" width="20.000" height="20.000" fill="#000000" stroke="none"/>
    <rect x="110.000" y="10.000" width="20.000" height="20.000" fill="#000000" stroke="none"/>
    <rect x="150.000" y="10.000" width="20.000" height="20.000" fill="#000000" stroke="none"/>
    <rect x="10.000" y="30.000" width="20.000" height="20.000" fill="#000000" stroke="none"/>
    <rect x="50.000" y="30.000" width="20.000" height="20.000" fill="#000000" stroke="none"/>
    <rect x="90.000" y="30.000" width="20.000" height="20.000" fill="#000000" stroke="none"/>
    <rect x="130.000" y="30.000" width="20.000" height="20.000" fill="#000000" stroke="none"/>
    <rect x="30.000" y="50.000" width="20.000" height="20.000" fill="#000000" stroke="none"/>
    <rect x="70.000" y="50.000" width="20.000" height="20.000" fill="#000000" stroke="none"/>
    <rect x="110.000" y="50.000" width="20.000" height="20.000" fill="#000000" stroke="none"/>
    <rect x="150.000" y="50.000" width="20.000" height="20.000" fill="#000000" stroke="none"/>
    <rect x="10.000" y="70.000" width="20.000" height="20.000" fill="#000000" stroke="none"/>
    <rect x="50.000" y="70.000" width="20.000" height="20.000" fill="#000000" stroke="none"/>
    <rect x="90.000" y="70.000" width="20.000" height="20.000" fill="#000000" stroke="none"/>
    <rect x="130.000" y="70.000" width="20.000" height="20.000" fill="#000000" stroke="none"/>
    <rect x="30.000" y="90.000" width="20.000" height="20.000" fill="#000000" stroke="none"/>
    <rect x="70.000" y="90.000" width="20.000" height="20.000" fill="#000000" stroke="none"/>
    <rect x="110.000" y="90.000" width="20.000" height="20.000" fill="#000000" stroke="none"/>
    <rect x="150.000" y="90.000" width="20.000" height="20.000" fill="#000000" stroke="none"/>
    <rect x="10.000" y="110.000" width="20.000" height="20.000" fill="#000000" stroke="none"/>
    <rect x="50.000" y="110.000" width="20.000" height="20.000" fill="#000000" stroke="none"/>
    <rect x="90.000" y="110.000" width="20.000" height="20.000" fill="#000000" stroke="none"/>
    <rect x="130.000" y="110.000" width="20.000" height="20.000" fill="#000000" stroke="none"/>
    <rect x="30.000" y="130.000" width="20.000" height="20.000" fill="#000000" stroke="none"/>
    <rect x="70.000" y="130.000" width="20.000" height="20.000" fill="#000000" stroke="none"/>
    <rect x="110.000" y="130.000" width="20.000" height="20.000" fill="#000000" stroke="none"/>
    <rect x="150.000" y="130.000" width="20.000" height="20.000" fill="#000000" stroke="none"/>
    <rect x="10.000" y="150.000" width="20.000" height="20.000" fill="#000000" stroke="none"/>
    <rect x="50.000" y="150.000" width="20.000" height="20.000" fill="#000000" stroke="none"/>
    <rect x="90.000" y="150.000" width="20.000" height="20.000" fill="#000000" stroke="none"/>
    <rect x="130.000" y="150.000" width="20.000" height="20.000" fill="#000000" stroke="none"/>
  </g>

  <!-- Lignes de decoupe (laser) -->
  <g id="cut">
    <path d="M 10.000,10.000 L 170.000,10.000 L 170.000,170.000 L 10.000,170.000 Z" fill="none" stroke="#FF0000" stroke-width="0.200"/>
    <path d="M 10.000,30.000 L 18.000,30.000 L 18.000,31.100 C 18.000,32.750 17.500,32.750 17.500,34.125 C 17.500,35.500 22.500,35.500 22.500,34.125 C 22.500,32.750 22.000,32.750 22.000,31.100 L 22.000,30.000 L 30.000,30.000 L 38.000,30.000 L 38.000,28.700 C 38.000,26.750 36.800,26.750 36.800,25.125 C 36.800,23.500 43.200,23.500 43.200,25.125 C 43.200,26.750 42.000,26.750 42.000,28.700 L 42.000,30.000 L 50.000,30.000 L 58.500,30.000 L 58.500,28.700 C 58.500,26.750 56.000,26.750 56.000,25.125 C 56.000,23.500 64.000,23.500 64.000,25.125 C 64.000,26.750 61.500,26.750 61.500,28.700 L 61.500,30.000 L 70.000,30.000 L 76.000,30.000 L 76.000,30.900 C 76.000,32.250 74.000,32.250 74.000,33.375 C 74.000,34.500 82.000,34.500 82.000,33.375 C 82.000,32.250 80.000,32.250 80.000,30.900 L 80.000,30.000 L 90.000,30.000 L 101.000,30.000 L 101.000,30.900 C 101.000,32.250 98.000,32.250 98.000,33.375 C 98.000,34.500 106.000,34.500 106.000,33.375 C 106.000,32.250 103.000,32.250 103.000,30.900 L 103.000,30.000 L 110.000,30.000 L 118.500,30.000 L 118.500,28.900 C 118.500,27.250 116.800,27.250 116.800,25.875 C 116.800,24.500 123.200,24.500 123.200,25.875 C 123.200,27.250 121.500,27.250 121.500,28.900 L 121.500,30.000 L 130.000,30.000 L 140.000,30.000 L 140.000,31.100 C 140.000,32.750 138.800,32.750 138.800,34.125 C 138.800,35.500 145.200,35.500 145.200,34.125 C 145.200,32.750 144.000,32.750 144.000,31.100 L 144.000,30.000 L 150.000,30.000 L 157.000,30.000 L 157.000,28.700 C 157.000,26.750 155.500,26.750 155.500,25.125 C 155.500,23.500 160.500,23.500 160.500,25.125 C 160.500,26.750 159.000,26.750 159.000,28.700 L 159.000,30.000 L 170.000,30.000 " fill="none" stroke="#FF0000" stroke-width="0.200"/>
    <path d="M 10.000,50.000 L 21.000,50.000 L 21.000,48.900 C 21.000,47.250 18.800,47.250 18.800,45.875 C 18.800,44.500 25.200,44.500 25.200,45.875 C 25.200,47.250 23.000,47.250 23.000,48.900 L 23.000,50.000 L 30.000,50.000 L 38.500,50.000 L 38.500,49.100 C 38.500,47.750 37.500,47.750 37.500,46.625 C 37.500,45.500 42.500,45.500 42.500,46.625 C 42.500,47.750 41.500,47.750 41.500,49.100 L 41.500,50.000 L 50.000,50.000 L 56.500,50.000 L 56.500,49.100 C 56.500,47.750 54.800,47.750 54.800,46.625 C 54.800,45.500 61.200,45.500 61.200,46.625 C 61.200,47.750 59.500,47.750 59.500,49.100 L 59.500,50.000 L 70.000,50.000 L 80.500,50.000 L 80.500,48.700 C 80.500,46.750 78.800,46.750 78.800,45.125 C 78.800,43.500 85.200,43.500 85.200,45.125 C 85.200,46.750 83.500,46.750 83.500,48.700 L 83.500,50.000 L 90.000,50.000 L 101.000,50.000 L 101.000,49.100 C 101.000,47.750 98.000,47.750 98.000,46.625 C 98.000,45.500 106.000,45.500 106.000,46.625 C 106.000,47.750 103.000,47.750 103.000,49.100 L 103.000,50.000 L 110.000,50.000 L 117.000,50.000 L 117.000,50.900 C 117.000,52.250 114.800,52.250 114.800,53.375 C 114.800,54.500 121.200,54.500 121.200,53.375 C 121.200,52.250 119.000,52.250 119.000,50.900 L 119.000,50.000 L 130.000,50.000 L 138.000,50.000 L 138.000,50.900 C 138.000,52.250 136.000,52.250 136.000,53.375 C 136.000,54.500 144.000,54.500 144.000,53.375 C 144.000,52.250 142.000,52.250 142.000,50.900 L 142.000,50.000 L 150.000,50.000 L 160.500,50.000 L 160.500,49.100 C 160.500,47.750 159.500,47.750 159.500,46.625 C 159.500,45.500 164.500,45.500 164.500,46.625 C 164.500,47.750 163.500,47.750 163.500,49.100 L 163.500,50.000 L 170.000,50.000 " fill="none" stroke="#FF0000" stroke-width="0.200"/>
    <path d="M 10.000,70.000 L 17.000,70.000 L 17.000,70.900 C 17.000,72.250 15.500,72.250 15.500,73.375 C 15.500,74.500 20.500,74.500 20.500,73.375 C 20.500,72.250 19.000,72.250 19.000,70.900 L 19.000,70.000 L 30.000,70.000 L 36.000,70.000 L 36.000,68.700 C 36.000,66.750 35.500,66.750 35.500,65.125 C 35.500,63.500 40.500,63.500 40.500,65.125 C 40.500,66.750 40.000,66.750 40.000,68.700 L 40.000,70.000 L 50.000,70.000 L 56.000,70.000 L 56.000,68.900 C 56.000,67.250 54.000,67.250 54.000,65.875 C 54.000,64.500 62.000,64.500 62.000,65.875 C 62.000,67.250 60.000,67.250 60.000,68.900 L 60.000,70.000 L 70.000,70.000 L 80.500,70.000 L 80.500,68.700 C 80.500,66.750 79.500,66.750 79.500,65.125 C 79.500,63.500 84.500,63.500 84.500,65.125 C 84.500,66.750 83.500,66.750 83.500,68.700 L 83.500,70.000 L 90.000,70.000 L 97.000,70.000 L 97.000,71.300 C 97.000,73.250 94.000,73.250 94.000,74.875 C 94.000,76.500 102.000,76.500 102.000,74.875 C 102.000,73.250 99.000,73.250 99.000,71.300 L 99.000,70.000 L 110.000,70.000 L 119.000,70.000 L 119.000,70.900 C 119.000,72.250 116.800,72.250 116.800,73.375 C 116.800,74.500 123.200,74.500 123.200,73.375 C 123.200,72.250 121.000,72.250 121.000,70.900 L 121.000,70.000 L 130.000,70.000 L 140.500,70.000 L 140.500,71.300 C 140.500,73.250 138.800,73.250 138.800,74.875 C 138.800,76.500 145.200,76.500 145.200,74.875 C 145.200,73.250 143.500,73.250 143.500,71.300 L 143.500,70.000 L 150.000,70.000 L 158.500,70.000 L 158.500,71.100 C 158.500,72.750 156.000,72.750 156.000,74.125 C 156.000,75.500 164.000,75.500 164.000,74.125 C 164.000,72.750 161.500,72.750 161.500,71.100 L 161.500,70.000 L 170.000,70.000 " fill="none" stroke="#FF0000" stroke-width="0.200"/>
    <path d="M 10.000,90.000 L 17.000,90.000 L 17.000,91.300 C 17.000,93.250 15.500,93.250 15.500,94.875 C 15.500,96.500 20.500,96.500 20.500,94.875 C 20.500,93.250 19.000,93.250 19.000,91.300 L 19.000,90.000 L 30.000,90.000 L 37.000,90.000 L 37.000,91.100 C 37.000,92.750 34.800,92.750 34.800,94.125 C 34.800,95.500 41.200,95.500 41.200,94.125 C 41.200,92.750 39.000,92.750 39.000,91.100 L 39.000,90.000 L 50.000,90.000 L 58.500,90.000 L 58.500,91.100 C 58.500,92.750 56.800,92.750 56.800,94.125 C 56.800,95.500 63.200,95.500 63.200,94.125 C 63.200,92.750 61.500,92.750 61.500,91.100 L 61.500,90.000 L 70.000,90.000 L 80.000,90.000 L 80.000,89.100 C 80.000,87.750 79.500,87.750 79.500,86.625 C 79.500,85.500 84.500,85.500 84.500,86.625 C 84.500,87.750 84.000,87.750 84.000,89.100 L 84.000,90.000 L 90.000,90.000 L 98.500,90.000 L 98.500,88.900 C 98.500,87.250 97.500,87.250 97.500,85.875 C 97.500,84.500 102.500,84.500 102.500,85.875 C 102.500,87.250 101.500,87.250 101.500,88.900 L 101.500,90.000 L 110.000,90.000 L 120.500,90.000 L 120.500,88.700 C 120.500,86.750 118.000,86.750 118.000,85.125 C 118.000,83.500 126.000,83.500 126.000,85.125 C 126.000,86.750 123.500,86.750 123.500,88.700 L 123.500,90.000 L 130.000,90.000 L 140.500,90.000 L 140.500,88.900 C 140.500,87.250 138.000,87.250 138.000,85.875 C 138.000,84.500 146.000,84.500 146.000,85.875 C 146.000,87.250 143.500,87.250 143.500,88.900 L 143.500,90.000 L 150.000,90.000 L 160.000,90.000 L 160.000,88.900 C 160.000,87.250 158.800,87.250 158.800,85.875 C 158.800,84.500 165.200,84.500 165.200,85.875 C 165.200,87.250 164.000,87.250 164.000,88.900 L 164.000,90.000 L 170.000,90.000 " fill="none" stroke="#FF0000" stroke-width="0.200"/>
    <path d="M 10.000,110.000 L 20.500,110.000 L 20.500,110.900 C 20.500,112.250 19.500,112.250 19.500,113.375 C 19.500,114.500 24.500,114.500 24.500,113.375 C 24.500,112.250 23.500,112.250 23.500,110.900 L 23.500,110.000 L 30.000,110.000 L 36.500,110.000 L 36.500,110.900 C 36.500,112.250 35.500,112.250 35.500,113.375 C 35.500,114.500 40.500,114.500 40.500,113.375 C 40.500,112.250 39.500,112.250 39.500,110.900 L 39.500,110.000 L 50.000,110.000 L 59.000,110.000 L 59.000,108.700 C 59.000,106.750 56.000,106.750 56.000,105.125 C 56.000,103.500 64.000,103.500 64.000,105.125 C 64.000,106.750 61.000,106.750 61.000,108.700 L 61.000,110.000 L 70.000,110.000 L 79.000,110.000 L 79.000,110.900 C 79.000,112.250 77.500,112.250 77.500,113.375 C 77.500,114.500 82.500,114.500 82.500,113.375 C 82.500,112.250 81.000,112.250 81.000,110.900 L 81.000,110.000 L 90.000,110.000 L 96.500,110.000 L 96.500,108.700 C 96.500,106.750 94.800,106.750 94.800,105.125 C 94.800,103.500 101.200,103.500 101.200,105.125 C 101.200,106.750 99.500,106.750 99.500,108.700 L 99.500,110.000 L 110.000,110.000 L 118.500,110.000 L 118.500,110.900 C 118.500,112.250 116.800,112.250 116.800,113.375 C 116.800,114.500 123.200,114.500 123.200,113.375 C 123.200,112.250 121.500,112.250 121.500,110.900 L 121.500,110.000 L 130.000,110.000 L 136.500,110.000 L 136.500,108.700 C 136.500,106.750 135.500,106.750 135.500,105.125 C 135.500,103.500 140.500,103.500 140.500,105.125 C 140.500,106.750 139.500,106.750 139.500,108.700 L 139.500,110.000 L 150.000,110.000 L 161.000,110.000 L 161.000,111.100 C 161.000,112.750 158.800,112.750 158.800,114.125 C 158.800,115.500 165.200,115.500 165.200,114.125 C 165.200,112.750 163.000,112.750 163.000,111.100 L 163.000,110.000 L 170.000,110.000 " fill="none" stroke="#FF0000" stroke-width="0.200"/>
    <path d="M 10.000,130.000 L 16.000,130.000 L 16.000,128.700 C 16.000,126.750 14.000,126.750 14.000,125.125 C 14.000,123.500 22.000,123.500 22.000,125.125 C 22.000,126.750 20.000,126.750 20.000,128.700 L 20.000,130.000 L 30.000,130.000 L 36.000,130.000 L 36.000,131.100 C 36.000,132.750 34.000,132.750 34.000,134.125 C 34.000,135.500 42.000,135.500 42.000,134.125 C 42.000,132.750 40.000,132.750 40.000,131.100 L 40.000,130.000 L 50.000,130.000 L 59.000,130.000 L 59.000,129.100 C 59.000,127.750 57.500,127.750 57.500,126.625 C 57.500,125.500 62.500,125.500 62.500,126.625 C 62.500,127.750 61.000,127.750 61.000,129.100 L 61.000,130.000 L 70.000,130.000 L 78.000,130.000 L 78.000,131.100 C 78.000,132.750 76.000,132.750 76.000,134.125 C 76.000,135.500 84.000,135.500 84.000,134.125 C 84.000,132.750 82.000,132.750 82.000,131.100 L 82.000,130.000 L 90.000,130.000 L 96.500,130.000 L 96.500,128.900 C 96.500,127.250 94.000,127.250 94.000,125.875 C 94.000,124.500 102.000,124.500 102.000,125.875 C 102.000,127.250 99.500,127.250 99.500,128.900 L 99.500,130.000 L 110.000,130.000 L 119.000,130.000 L 119.000,128.700 C 119.000,126.750 117.500,126.750 117.500,125.125 C 117.500,123.500 122.500,123.500 122.500,125.125 C 122.500,126.750 121.000,126.750 121.000,128.700 L 121.000,130.000 L 130.000,130.000 L 139.000,130.000 L 139.000,131.300 C 139.000,133.250 136.000,133.250 136.000,134.875 C 136.000,136.500 144.000,136.500 144.000,134.875 C 144.000,133.250 141.000,133.250 141.000,131.300 L 141.000,130.000 L 150.000,130.000 L 160.500,130.000 L 160.500,129.100 C 160.500,127.750 158.800,127.750 158.800,126.625 C 158.800,125.500 165.200,125.500 165.200,126.625 C 165.200,127.750 163.500,127.750 163.500,129.100 L 163.500,130.000 L 170.000,130.000 " fill="none" stroke="#FF0000" stroke-width="0.200"/>
    <path d="M 10.000,150.000 L 19.000,150.000 L 19.000,148.900 C 19.000,147.250 17.500,147.250 17.500,145.875 C 17.500,144.500 22.500,144.500 22.500,145.875 C 22.500,147.250 21.000,147.250 21.000,148.900 L 21.000,150.000 L 30.000,150.000 L 36.000,150.000 L 36.000,148.900 C 36.000,147.250 35.500,147.250 35.500,145.875 C 35.500,144.500 40.500,144.500 40.500,145.875 C 40.500,147.250 40.000,147.250 40.000,148.900 L 40.000,150.000 L 50.000,150.000 L 59.000,150.000 L 59.000,148.700 C 59.000,146.750 56.800,146.750 56.800,145.125 C 56.800,143.500 63.200,143.500 63.200,145.125 C 63.200,146.750 61.000,146.750 61.000,148.700 L 61.000,150.000 L 70.000,150.000 L 78.000,150.000 L 78.000,149.100 C 78.000,147.750 77.500,147.750 77.500,146.625 C 77.500,145.500 82.500,145.500 82.500,146.625 C 82.500,147.750 82.000,147.750 82.000,149.100 L 82.000,150.000 L 90.000,150.000 L 100.500,150.000 L 100.500,151.100 C 100.500,152.750 98.800,152.750 98.800,154.125 C 98.800,155.500 105.200,155.500 105.200,154.125 C 105.200,152.750 103.500,152.750 103.500,151.100 L 103.500,150.000 L 110.000,150.000 L 116.000,150.000 L 116.000,151.100 C 116.000,152.750 114.800,152.750 114.800,154.125 C 114.800,155.500 121.200,155.500 121.200,154.125 C 121.200,152.750 120.000,152.750 120.000,151.100 L 120.000,150.000 L 130.000,150.000 L 138.000,150.000 L 138.000,150.900 C 138.000,152.250 136.800,152.250 136.800,153.375 C 136.800,154.500 143.200,154.500 143.200,153.375 C 143.200,152.250 142.000,152.250 142.000,150.900 L 142.000,150.000 L 150.000,150.000 L 158.000,150.000 L 158.000,149.100 C 158.000,147.750 156.000,147.750 156.000,146.625 C 156.000,145.500 164.000,145.500 164.000,146.625 C 164.000,147.750 162.000,147.750 162.000,149.100 L 162.000,150.000 L 170.000,150.000 " fill="none" stroke="#FF0000" stroke-width="0.200"/>
    <path d="M 30.000,10.000 L 30.000,16.500 L 28.900,16.500 C 27.250,16.500 27.250,15.500 25.875,15.500 C 24.500,15.500 24.500,20.500 25.875,20.500 C 27.250,20.500 27.250,19.500 28.900,19.500 L 30.000,19.500 L 30.000,30.000 L 30.000,39.000 L 31.100,39.000 C 32.750,39.000 32.750,36.000 34.125,36.000 C 35.500,36.000 35.500,44.000 34.125,44.000 C 32.750,44.000 32.750,41.000 31.100,41.000 L 30.000,41.000 L 30.000,50.000 L 30.000,56.500 L 31.300,56.500 C 33.250,56.500 33.250,54.000 34.875,54.000 C 36.500,54.000 36.500,62.000 34.875,62.000 C 33.250,62.000 33.250,59.500 31.300,59.500 L 30.000,59.500 L 30.000,70.000 L 30.000,78.000 L 28.900,78.000 C 27.250,78.000 27.250,76.800 25.875,76.800 C 24.500,76.800 24.500,83.200 25.875,83.200 C 27.250,83.200 27.250,82.000 28.900,82.000 L 30.000,82.000 L 30.000,90.000 L 30.000,99.000 L 28.900,99.000 C 27.250,99.000 27.250,96.800 25.875,96.800 C 24.500,96.800 24.500,103.200 25.875,103.200 C 27.250,103.200 27.250,101.000 28.900,101.000 L 30.000,101.000 L 30.000,110.000 L 30.000,120.000 L 31.300,120.000 C 33.250,120.000 33.250,119.500 34.875,119.500 C 36.500,119.500 36.500,124.500 34.875,124.500 C 33.250,124.500 33.250,124.000 31.300,124.000 L 30.000,124.000 L 30.000,130.000 L 30.000,137.000 L 28.700,137.000 C 26.750,137.000 26.750,134.800 25.125,134.800 C 23.500,134.800 23.500,141.200 25.125,141.200 C 26.750,141.200 26.750,139.000 28.700,139.000 L 30.000,139.000 L 30.000,150.000 L 30.000,159.000 L 31.100,159.000 C 32.750,159.000 32.750,156.800 34.125,156.800 C 35.500,156.800 35.500,163.200 34.125,163.200 C 32.750,163.200 32.750,161.000 31.100,161.000 L 30.000,161.000 L 30.000,170.000 " fill="none" stroke="#FF0000" stroke-width="0.200"/>
    <path d="M 50.000,10.000 L 50.000,20.000 L 49.100,20.000 C 47.750,20.000 47.750,18.800 46.625,18.800 C 45.500,18.800 45.500,25.200 46.625,25.200 C 47.750,25.200 47.750,24.000 49.100,24.000 L 50.000,24.000 L 50.000,30.000 L 50.000,38.500 L 49.100,38.500 C 47.750,38.500 47.750,36.000 46.625,36.000 C 45.500,36.000 45.500,44.000 46.625,44.000 C 47.750,44.000 47.750,41.500 49.100,41.500 L 50.000,41.500 L 50.000,50.000 L 50.000,60.000 L 48.700,60.000 C 46.750,60.000 46.750,58.000 45.125,58.000 C 43.500,58.000 43.500,66.000 45.125,66.000 C 46.750,66.000 46.750,64.000 48.700,64.000 L 50.000,64.000 L 50.000,70.000 L 50.000,76.500 L 48.900,76.500 C 47.250,76.500 47.250,74.800 45.875,74.800 C 44.500,74.800 44.500,81.200 45.875,81.200 C 47.250,81.200 47.250,79.500 48.900,79.500 L 50.000,79.500 L 50.000,90.000 L 50.000,96.000 L 48.900,96.000 C 47.250,96.000 47.250,94.800 45.875,94.800 C 44.500,94.800 44.500,101.200 45.875,101.200 C 47.250,101.200 47.250,100.000 48.900,100.000 L 50.000,100.000 L 50.000,110.000 L 50.000,120.500 L 49.100,120.500 C 47.750,120.500 47.750,118.000 46.625,118.000 C 45.500,118.000 45.500,126.000 46.625,126.000 C 47.750,126.000 47.750,123.500 49.100,123.500 L 50.000,123.500 L 50.000,130.000 L 50.000,138.500 L 49.100,138.500 C 47.750,138.500 47.750,136.800 46.625,136.800 C 45.500,136.800 45.500,143.200 46.625,143.200 C 47.750,143.200 47.750,141.500 49.100,141.500 L 50.000,141.500 L 50.000,150.000 L 50.000,157.000 L 48.900,157.000 C 47.250,157.000 47.250,154.000 45.875,154.000 C 44.500,154.000 44.500,162.000 45.875,162.000 C 47.250,162.000 47.250,159.000 48.900,159.000 L 50.000,159.000 L 50.000,170.000 " fill="none" stroke="#FF0000" stroke-width="0.200"/>
    <path d="M 70.000,10.000 L 70.000,21.000 L 71.100,21.000 C 72.750,21.000 72.750,18.000 74.125,18.000 C 75.500,18.000 75.500,26.000 74.125,26.000 C 72.750,26.000 72.750,23.000 71.100,23.000 L 70.000,23.000 L 70.000,30.000 L 70.000,39.000 L 71.300,39.000 C 73.250,39.000 73.250,36.800 74.875,36.800 C 76.500,36.800 76.500,43.200 74.875,43.200 C 73.250,43.200 73.250,41.000 71.300,41.000 L 70.000,41.000 L 70.000,50.000 L 70.000,60.500 L 71.300,60.500 C 73.250,60.500 73.250,58.000 74.875,58.000 C 76.500,58.000 76.500,66.000 74.875,66.000 C 73.250,66.000 73.250,63.500 71.300,63.500 L 70.000,63.500 L 70.000,70.000 L 70.000,80.000 L 71.100,80.000 C 72.750,80.000 72.750,79.500 74.125,79.500 C 75.500,79.500 75.500,84.500 74.125,84.500 C 72.750,84.500 72.750,84.000 71.100,84.000 L 70.000,84.000 L 70.000,90.000 L 70.000,97.000 L 71.300,97.000 C 73.250,97.000 73.250,94.800 74.875,94.800 C 76.500,94.800 76.500,101.200 74.875,101.200 C 73.250,101.200 73.250,99.000 71.300,99.000 L 70.000,99.000 L 70.000,110.000 L 70.000,120.500 L 71.300,120.500 C 73.250,120.500 73.250,119.500 74.875,119.500 C 76.500,119.500 76.500,124.500 74.875,124.500 C 73.250,124.500 73.250,123.500 71.300,123.500 L 70.000,123.500 L 70.000,130.000 L 70.000,141.000 L 68.900,141.000 C 67.250,141.000 67.250,139.500 65.875,139.500 C 64.500,139.500 64.500,144.500 65.875,144.500 C 67.250,144.500 67.250,143.000 68.900,143.000 L 70.000,143.000 L 70.000,150.000 L 70.000,158.000 L 71.100,158.000 C 72.750,158.000 72.750,156.800 74.125,156.800 C 75.500,156.800 75.500,163.200 74.125,163.200 C 72.750,163.200 72.750,162.000 71.100,162.000 L 70.000,162.000 L 70.000,170.000 " fill="none" stroke="#FF0000" stroke-width="0.200"/>
    <path d="M 90.000,10.000 L 90.000,21.000 L 88.700,21.000 C 86.750,21.000 86.750,19.500 85.125,19.500 C 83.500,19.500 83.500,24.500 85.125,24.500 C 86.750,24.500 86.750,23.000 88.700,23.000 L 90.000,23.000 L 90.000,30.000 L 90.000,36.000 L 89.100,36.000 C 87.750,36.000 87.750,34.000 86.625,34.000 C 85.500,34.000 85.500,42.000 86.625,42.000 C 87.750,42.000 87.750,40.000 89.100,40.000 L 90.000,40.000 L 90.000,50.000 L 90.000,60.000 L 90.900,60.000 C 92.250,60.000 92.250,58.800 93.375,58.800 C 94.500,58.800 94.500,65.200 93.375,65.200 C 92.250,65.200 92.250,64.000 90.900,64.000 L 90.000,64.000 L 90.000,70.000 L 90.000,80.500 L 88.900,80.500 C 87.250,80.500 87.250,79.500 85.875,79.500 C 84.500,79.500 84.500,84.500 85.875,84.500 C 87.250,84.500 87.250,83.500 88.900,83.500 L 90.000,83.500 L 90.000,90.000 L 90.000,100.000 L 88.900,100.000 C 87.250,100.000 87.250,99.500 85.875,99.500 C 84.500,99.500 84.500,104.500 85.875,104.500 C 87.250,104.500 87.250,104.000 88.900,104.000 L 90.000,104.000 L 90.000,110.000 L 90.000,120.000 L 88.700,120.000 C 86.750,120.000 86.750,119.500 85.125,119.500 C 83.500,119.500 83.500,124.500 85.125,124.500 C 86.750,124.500 86.750,124.000 88.700,124.000 L 90.000,124.000 L 90.000,130.000 L 90.000,138.000 L 91.300,138.000 C 93.250,138.000 93.250,136.000 94.875,136.000 C 96.500,136.000 96.500,144.000 94.875,144.000 C 93.250,144.000 93.250,142.000 91.300,142.000 L 90.000,142.000 L 90.000,150.000 L 90.000,158.000 L 91.300,158.000 C 93.250,158.000 93.250,156.800 94.875,156.800 C 96.500,156.800 96.500,163.200 94.875,163.200 C 93.250,163.200 93.250,162.000 91.300,162.000 L 90.000,162.000 L 90.000,170.000 " fill="none" stroke="#FF0000" stroke-width="0.200"/>
    <path d="M 110.000,10.000 L 110.000,17.000 L 110.900,17.000 C 112.250,17.000 112.250,14.000 113.375,14.000 C 114.500,14.000 114.500,22.000 113.375,22.000 C 112.250,22.000 112.250,19.000 110.900,19.000 L 110.000,19.000 L 110.000,30.000 L 110.000,36.500 L 111.100,36.500 C 112.750,36.500 112.750,35.500 114.125,35.500 C 115.500,35.500 115.500,40.500 114.125,40.500 C 112.750,40.500 112.750,39.500 111.100,39.500 L 110.000,39.500 L 110.000,50.000 L 110.000,59.000 L 108.900,59.000 C 107.250,59.000 107.250,56.000 105.875,56.000 C 104.500,56.000 104.500,64.000 105.875,64.000 C 107.250,64.000 107.250,61.000 108.900,61.000 L 110.000,61.000 L 110.000,70.000 L 110.000,76.500 L 110.900,76.500 C 112.250,76.500 112.250,74.800 113.375,74.800 C 114.500,74.800 114.500,81.200 113.375,81.200 C 112.250,81.200 112.250,79.500 110.900,79.500 L 110.000,79.500 L 110.000,90.000 L 110.000,97.000 L 108.700,97.000 C 106.750,97.000 106.750,94.000 105.125,94.000 C 103.500,94.000 103.500,102.000 105.125,102.000 C 106.750,102.000 106.750,99.000 108.700,99.000 L 110.000,99.000 L 110.000,110.000 L 110.000,119.000 L 109.100,119.000 C 107.750,119.000 107.750,116.000 106.625,116.000 C 105.500,116.000 105.500,124.000 106.625,124.000 C 107.750,124.000 107.750,121.000 109.100,121.000 L 110.000,121.000 L 110.000,130.000 L 110.000,140.000 L 110.900,140.000 C 112.250,140.000 112.250,138.000 113.375,138.000 C 114.500,138.000 114.500,146.000 113.375,146.000 C 112.250,146.000 112.250,144.000 110.900,144.000 L 110.000,144.000 L 110.000,150.000 L 110.000,160.000 L 109.100,160.000 C 107.750,160.000 107.750,158.000 106.625,158.000 C 105.500,158.000 105.500,166.000 106.625,166.000 C 107.750,166.000 107.750,164.000 109.100,164.000 L 110.000,164.000 L 110.000,170.000 " fill="none" stroke="#FF0000" stroke-width="0.200"/>
    <path d="M 130.000,10.000 L 130.000,18.000 L 130.900,18.000 C 132.250,18.000 132.250,17.500 133.375,17.500 C 134.500,17.500 134.500,22.500 133.375,22.500 C 132.250,22.500 132.250,22.000 130.900,22.000 L 130.000,22.000 L 130.000,30.000 L 130.000,41.000 L 129.100,41.000 C 127.750,41.000 127.750,38.800 126.625,38.800 C 125.500,38.800 125.500,45.200 126.625,45.200 C 127.750,45.200 127.750,43.000 129.100,43.000 L 130.000,43.000 L 130.000,50.000 L 130.000,61.000 L 129.100,61.000 C 127.750,61.000 127.750,59.500 126.625,59.500 C 125.500,59.500 125.500,64.500 126.625,64.500 C 127.750,64.500 127.750,63.000 129.100,63.000 L 130.000,63.000 L 130.000,70.000 L 130.000,77.000 L 129.100,77.000 C 127.750,77.000 127.750,75.500 126.625,75.500 C 125.500,75.500 125.500,80.500 126.625,80.500 C 127.750,80.500 127.750,79.000 129.100,79.000 L 130.000,79.000 L 130.000,90.000 L 130.000,99.000 L 129.100,99.000 C 127.750,99.000 127.750,96.800 126.625,96.800 C 125.500,96.800 125.500,103.200 126.625,103.200 C 127.750,103.200 127.750,101.000 129.100,101.000 L 130.000,101.000 L 130.000,110.000 L 130.000,120.500 L 131.100,120.500 C 132.750,120.500 132.750,119.500 134.125,119.500 C 135.500,119.500 135.500,124.500 134.125,124.500 C 132.750,124.500 132.750,123.500 131.100,123.500 L 130.000,123.500 L 130.000,130.000 L 130.000,139.000 L 130.900,139.000 C 132.250,139.000 132.250,136.000 133.375,136.000 C 134.500,136.000 134.500,144.000 133.375,144.000 C 132.250,144.000 132.250,141.000 130.900,141.000 L 130.000,141.000 L 130.000,150.000 L 130.000,158.000 L 128.900,158.000 C 127.250,158.000 127.250,156.000 125.875,156.000 C 124.500,156.000 124.500,164.000 125.875,164.000 C 127.250,164.000 127.250,162.000 128.900,162.000 L 130.000,162.000 L 130.000,170.000 " fill="none" stroke="#FF0000" stroke-width="0.200"/>
    <path d="M 150.000,10.000 L 150.000,17.000 L 149.100,17.000 C 147.750,17.000 147.750,14.800 146.625,14.800 C 145.500,14.800 145.500,21.200 146.625,21.200 C 147.750,21.200 147.750,19.000 149.100,19.000 L 150.000,19.000 L 150.000,30.000 L 150.000,38.500 L 151.300,38.500 C 153.250,38.500 153.250,36.000 154.875,36.000 C 156.500,36.000 156.500,44.000 154.875,44.000 C 153.250,44.000 153.250,41.500 151.300,41.500 L 150.000,41.500 L 150.000,50.000 L 150.000,61.000 L 151.300,61.000 C 153.250,61.000 153.250,58.000 154.875,58.000 C 156.500,58.000 156.500,66.000 154.875,66.000 C 153.250,66.000 153.250,63.000 151.300,63.000 L 150.000,63.000 L 150.000,70.000 L 150.000,81.000 L 151.300,81.000 C 153.250,81.000 153.250,78.800 154.875,78.800 C 156.500,78.800 156.500,85.200 154.875,85.200 C 153.250,85.200 153.250,83.000 151.300,83.000 L 150.000,83.000 L 150.000,90.000 L 150.000,101.000 L 151.100,101.000 C 152.750,101.000 152.750,99.500 154.125,99.500 C 155.500,99.500 155.500,104.500 154.125,104.500 C 152.750,104.500 152.750,103.000 151.100,103.000 L 150.000,103.000 L 150.000,110.000 L 150.000,121.000 L 151.300,121.000 C 153.250,121.000 153.250,119.500 154.875,119.500 C 156.500,119.500 156.500,124.500 154.875,124.500 C 153.250,124.500 153.250,123.000 151.300,123.000 L 150.000,123.000 L 150.000,130.000 L 150.000,136.000 L 150.900,136.000 C 152.250,136.000 152.250,134.800 153.375,134.800 C 154.500,134.800 154.500,141.200 153.375,141.200 C 152.250,141.200 152.250,140.000 150.900,140.000 L 150.000,140.000 L 150.000,150.000 L 150.000,157.000 L 151.100,157.000 C 152.750,157.000 152.750,154.000 154.125,154.000 C 155.500,154.000 155.500,162.000 154.125,162.000 C 152.750,162.000 152.750,159.000 151.100,159.000 L 150.000,159.000 L 150.000,170.000 " fill="none" stroke="#FF0000" stroke-width="0.200"/>
  </g>

</svg>